<svg version="1.1" id="Layer_1" xmlns="http://www.w3.org/2000/svg" xmlns:xlink="http://www.w3.org/1999/xlink" x="0px" y="0px"
	 width="100%" viewBox="0 0 3705 472" enable-background="new 0 0 3705 472" xml:space="preserve">

<path fill="#93614C" opacity="1.000000" stroke="none" 
	d="
M434.531342,0.999998 
	C443.368042,3.319856 451.875153,5.233149 460.076782,8.039361 
	C480.798920,15.129498 497.516296,27.875872 511.432800,44.731461 
	C522.783508,58.479301 530.456726,74.015587 534.408569,91.163872 
	C537.076172,102.739685 538.233704,114.533669 537.322083,126.732193 
	C536.142334,142.519272 532.444763,157.420074 525.599060,171.387909 
	C521.402100,179.951340 515.997986,188.213821 509.774261,195.438324 
	C491.680267,216.441833 469.123108,230.363541 441.429413,234.961502 
	C434.811066,236.060333 428.058105,236.902023 421.365356,236.914246 
	C346.869354,237.050278 272.373016,237.000000 196.905090,237.000000 
	C201.502258,243.146835 205.621780,248.855637 209.950684,254.400986 
	C218.715988,265.629425 227.636948,276.736328 236.415955,287.954193 
	C246.901169,301.352325 257.330505,314.794434 267.737854,328.253174 
	C282.343781,347.141479 296.828247,366.124176 311.509308,384.953766 
	C328.619263,406.898590 345.941345,428.678040 363.050964,450.623108 
	C368.558716,457.687378 373.684998,465.049042 378.992889,472.637329 
	C314.645782,473.000000 250.291550,473.000000 185.375488,472.673157 
	C174.331299,459.163055 163.771606,446.040405 153.385635,432.781647 
	C139.486343,415.037842 125.734673,397.178406 111.895958,379.387024 
	C93.139717,355.273590 74.317810,331.211121 55.604843,307.064209 
	C38.801666,285.381622 22.130854,263.596405 5.308157,241.929077 
	C4.295100,240.624298 2.455165,239.961517 0.999998,239.000000 
	C1.000000,238.250000 1.000000,237.500000 1.468657,236.375000 
	C62.250534,236.000000 122.563751,236.000000 183.936172,236.000000 
	C179.543961,230.614151 175.930756,226.387009 172.539322,221.988861 
	C159.365356,204.904404 146.362549,187.687164 133.104355,170.668686 
	C119.324196,152.980225 105.236420,135.531525 91.441139,117.854698 
	C76.757179,99.039139 62.259659,80.078102 47.678459,61.182339 
	C35.293781,45.133049 22.971844,29.034563 10.469121,13.077743 
	C7.637599,9.463963 4.173124,6.346123 1.000000,3.000000 
	C1.331119,2.333333 1.543312,1.216086 2.017366,1.090964 
	C3.105636,0.803725 4.321524,1.000000 5.485607,1.000000 
	C69.011299,1.000000 132.536987,1.000000 196.538452,1.358342 
	C207.633087,15.596425 218.149307,29.556192 228.894302,43.337589 
	C246.001495,65.279083 263.317657,87.057556 280.439178,108.987938 
	C295.333832,128.065994 310.082855,147.257706 324.893402,166.401382 
	C335.099792,179.593872 345.271240,192.813507 355.518402,205.974182 
	C360.259308,212.063049 365.143707,218.040176 369.963013,224.067963 
	C370.308685,223.942490 370.654327,223.817032 371.000000,223.691574 
	C371.000000,149.461044 371.000000,75.230522 371.000000,1.000000 
	C392.020905,1.000000 413.041779,1.000000 434.531342,0.999998 
z"/>
<path fill="#f2ede6" opacity="1.000000" stroke="none" 
	d="
M3706.000000,252.531342 
	C3705.335205,257.215607 3704.632324,261.425659 3704.014160,265.648102 
	C3702.957275,272.868103 3702.334961,280.175293 3700.853271,287.305084 
	C3696.994873,305.869843 3690.529297,323.608551 3680.846191,339.874573 
	C3674.247314,350.960083 3666.533447,361.445221 3658.661865,371.694794 
	C3646.448242,387.597321 3630.935791,400.075378 3614.228760,410.862274 
	C3593.707275,424.112030 3571.413818,433.801056 3547.740234,439.855438 
	C3535.705322,442.933228 3523.365723,444.901367 3511.093018,446.946106 
	C3492.973389,449.965027 3474.644775,450.704163 3456.345703,449.862152 
	C3442.807129,449.239166 3429.309082,447.506470 3415.824219,445.990753 
	C3395.178955,443.670227 3375.484863,437.836304 3356.203125,430.138275 
	C3337.630859,422.723389 3320.358398,413.091949 3304.605957,400.948853 
	C3279.266357,381.414764 3259.173340,357.393677 3245.717529,328.196320 
	C3238.759277,313.098358 3234.031006,297.285187 3230.868164,280.894165 
	C3227.251709,262.154938 3226.252197,243.292358 3227.129883,224.378036 
	C3228.185303,201.639252 3232.313232,179.452591 3240.369141,157.948792 
	C3246.947754,140.388428 3255.718262,124.034004 3267.404053,109.689034 
	C3277.402588,97.415329 3289.174805,86.468147 3300.922119,75.768356 
	C3314.646729,63.267452 3330.905029,54.395706 3347.743896,46.758747 
	C3366.124756,38.422436 3385.254395,32.469830 3405.186768,28.899532 
	C3421.181885,26.034529 3437.172363,23.839014 3453.452881,23.976267 
	C3466.791260,24.088720 3480.210205,23.066563 3493.454590,24.189249 
	C3524.011230,26.779472 3553.807861,32.965172 3582.100342,45.485790 
	C3600.250488,53.517899 3616.999268,63.611488 3632.533691,75.942741 
	C3656.342529,94.842613 3674.333984,118.205017 3687.209229,145.628433 
	C3694.295898,160.722519 3699.255859,176.511002 3701.935059,192.950424 
	C3703.376709,201.796021 3704.130615,210.753647 3705.597656,219.830353 
	C3706.000000,230.687561 3706.000000,241.375122 3706.000000,252.531342 
M3394.748779,120.036491 
	C3394.183594,120.355988 3393.637451,120.717468 3393.050293,120.988876 
	C3375.168945,129.251877 3359.596191,140.567093 3347.410400,156.158661 
	C3332.033936,175.832596 3324.057861,198.580353 3322.203613,223.168625 
	C3320.759277,242.321701 3321.949219,261.513397 3328.018311,280.068817 
	C3339.773926,316.007874 3363.947021,340.391663 3398.431396,354.644470 
	C3419.842041,363.493835 3442.650146,366.262421 3465.639893,366.861023 
	C3473.622559,367.068878 3481.639404,365.549255 3489.654297,365.033539 
	C3503.650635,364.132965 3517.052979,360.874756 3530.227295,356.088135 
	C3551.485352,348.364502 3569.438965,336.244751 3583.891357,318.714142 
	C3601.145508,297.785126 3608.912109,273.345032 3610.870850,246.871750 
	C3611.987549,231.778427 3610.623535,216.704620 3607.014893,201.902069 
	C3600.573975,175.485611 3587.250000,153.249771 3565.814941,136.485626 
	C3541.306396,117.318047 3512.469971,109.123810 3481.987305,107.272202 
	C3467.082275,106.366844 3451.983154,108.045982 3437.008057,109.078880 
	C3422.552734,110.075905 3408.940918,114.748871 3394.748779,120.036491 
z"/>



<path fill="#f2ede6" opacity="1.000000" stroke="none" 
	d="
M2158.000000,109.000000 
	C2158.000000,83.192078 2158.000000,57.884151 2158.000000,32.288483 
	C2188.305908,32.288483 2218.373779,32.288483 2248.721436,32.288483 
	C2248.721436,168.654312 2248.721436,305.049622 2248.721436,442.000000 
	C2246.978271,442.000000 2245.209229,442.000000 2243.440186,442.000000 
	C2207.609619,442.000000 2171.778076,441.882233 2135.949707,442.155884 
	C2131.689697,442.188416 2129.331055,440.434753 2127.210938,437.578583 
	C2112.137207,417.272858 2097.113525,396.929871 2082.096924,376.581787 
	C2067.373047,356.629852 2052.724854,336.621796 2037.953735,316.704712 
	C2023.068848,296.634033 2008.047241,276.664673 1993.135010,256.614166 
	C1979.392822,238.136795 1965.710449,219.614975 1952.012573,201.104599 
	C1937.257446,181.165237 1922.527222,161.207352 1907.749390,141.284805 
	C1906.052856,138.997543 1904.120605,136.885361 1901.214478,135.119415 
	C1901.214478,237.261642 1901.214478,339.403839 1901.214478,441.772339 
	C1870.904541,441.772339 1841.170166,441.772339 1811.217773,441.772339 
	C1811.217773,305.223541 1811.217773,168.828323 1811.217773,32.000000 
	C1813.161011,32.000000 1814.946533,32.000000 1816.732056,32.000000 
	C1851.895996,32.000000 1887.064575,32.303932 1922.220215,31.760664 
	C1929.862915,31.642559 1934.319336,34.097534 1938.629272,39.956188 
	C1963.715576,74.056915 1989.144653,107.905205 2014.377563,141.898453 
	C2037.086914,172.492249 2059.617188,203.219086 2082.365723,233.783737 
	C2104.261230,263.201996 2126.341797,292.482513 2148.321533,321.838104 
	C2151.019043,325.440552 2153.597168,329.132385 2156.119141,332.628418 
	C2156.619141,332.590454 2156.792725,332.621857 2156.913574,332.556274 
	C2157.051514,332.481171 2157.163086,332.332703 2157.250000,332.193481 
	C2157.500488,331.793549 2157.942139,331.382385 2157.942383,330.975342 
	C2157.982422,257.150238 2157.990723,183.325119 2158.000000,109.000000 
z"/>
<path fill="#f2ede6" opacity="1.000000" stroke="none" 
	d="
M794.243042,334.637146 
	C784.937622,315.323853 777.725281,295.504639 775.347473,274.668610 
	C773.141785,255.340576 772.238464,235.618576 773.338501,216.216156 
	C774.989136,187.103912 782.834534,159.213623 797.180603,133.574402 
	C809.024292,112.407440 824.426819,94.130127 842.980713,78.367691 
	C858.938293,64.811050 876.766907,54.516518 895.632690,45.804226 
	C912.818726,37.867638 930.800964,32.116409 949.435730,29.186485 
	C965.715820,26.626780 982.238037,25.566706 998.671997,24.046207 
	C1005.399414,23.423775 1012.196167,22.821615 1018.926819,23.086664 
	C1051.686646,24.376724 1084.071533,28.409962 1114.914673,40.135498 
	C1138.707764,49.180847 1160.917114,61.175774 1180.500732,77.854294 
	C1204.141968,97.988510 1222.738770,121.760025 1234.998901,150.329071 
	C1241.176514,164.724396 1245.982422,179.603149 1247.930054,195.201614 
	C1249.308350,206.240601 1250.222900,217.350464 1250.957397,228.454285 
	C1252.793335,256.209717 1248.936646,283.233063 1240.089966,309.589172 
	C1232.977905,330.777893 1222.108154,349.810577 1208.265259,367.330780 
	C1187.393921,393.746429 1160.842773,412.663391 1130.621216,426.663666 
	C1111.259888,435.632904 1090.941284,441.919250 1069.765259,444.932587 
	C1057.650513,446.656555 1045.461426,448.067108 1033.256714,448.890839 
	C1020.870483,449.726776 1008.383301,450.467102 996.011902,449.839203 
	C967.084839,448.371063 938.562866,443.898895 911.235413,433.906891 
	C887.290588,425.151764 865.164673,413.096436 845.221802,396.913025 
	C825.406677,380.833252 809.718689,361.546204 797.134888,339.532257 
	C796.258179,337.998535 795.346619,336.484711 794.243042,334.637146 
M1090.991943,349.510681 
	C1106.378906,341.846191 1119.702271,331.537628 1130.397949,318.055908 
	C1148.644775,295.056213 1156.246460,268.209259 1156.743042,239.423645 
	C1156.952515,227.290512 1155.112183,214.959488 1152.820068,202.983185 
	C1149.246338,184.309753 1140.890869,167.480362 1128.447876,153.135422 
	C1116.379761,139.222687 1101.939453,128.337845 1084.793457,120.808640 
	C1065.331787,112.262611 1045.043091,108.120499 1024.073364,107.147461 
	C1013.196228,106.642746 1002.212097,107.230965 991.343140,108.132004 
	C981.985962,108.907730 972.501709,109.992805 963.460815,112.396980 
	C935.678101,119.785011 911.330322,133.011139 893.260010,156.197891 
	C886.063416,165.432144 879.989685,175.324448 876.084351,186.328247 
	C869.397278,205.170212 865.802917,224.560287 868.040527,244.651199 
	C869.137024,254.496704 869.887573,264.478516 872.160400,274.075165 
	C877.116577,295.001190 887.516235,313.286377 902.943176,328.212921 
	C914.624390,339.515259 928.256226,348.218933 943.557007,354.246826 
	C961.689697,361.390381 980.385864,365.496826 999.851562,365.967133 
	C1008.018555,366.164459 1016.205139,366.263428 1024.362793,365.924408 
	C1032.210938,365.598297 1040.164795,365.324463 1047.838501,363.828827 
	C1062.533813,360.964630 1076.939087,356.873047 1090.991943,349.510681 
z"/>
<path fill="#f2ede6" opacity="1.000000" stroke="none" 
	d="
M1324.000000,116.000000 
	C1324.000000,87.860321 1324.000000,60.220646 1324.000000,32.000000 
	C1325.824829,32.000000 1327.423218,32.000000 1329.021606,32.000000 
	C1414.675415,32.000000 1500.331299,31.690248 1585.981689,32.226070 
	C1606.423340,32.353954 1626.328247,37.469166 1645.136475,46.006252 
	C1661.107910,53.255741 1675.510254,62.661533 1687.883057,75.271805 
	C1703.291748,90.976135 1713.700195,109.381393 1717.804932,130.891922 
	C1719.910889,141.927185 1721.126221,153.382904 1720.772949,164.586441 
	C1719.956909,190.466675 1711.891846,213.975967 1695.250122,234.360703 
	C1677.575806,256.010132 1654.841064,269.664948 1628.564087,277.937103 
	C1621.354980,280.206573 1613.923584,281.769958 1606.204468,283.757721 
	C1648.363281,336.049835 1690.733765,388.604401 1733.782227,442.000000 
	C1731.423218,442.000000 1730.014526,442.000000 1728.605835,442.000000 
	C1694.944214,442.000000 1661.282471,441.966431 1627.621094,442.053497 
	C1624.364380,442.061920 1622.607666,441.020477 1620.504761,438.267639 
	C1610.024414,424.547943 1598.972534,411.266632 1588.260010,397.721710 
	C1576.357666,382.672119 1564.667603,367.454620 1552.766479,352.403961 
	C1543.162476,340.258453 1533.353760,328.275055 1523.687744,316.178314 
	C1513.112793,302.943939 1502.579346,289.676361 1492.062378,276.395752 
	C1483.580811,265.685486 1475.152466,254.933212 1466.697266,244.201981 
	C1458.762695,234.131226 1450.824097,224.063446 1442.103638,213.000000 
	C1444.751221,213.000000 1446.448242,213.000000 1448.145264,213.000000 
	C1487.806030,213.000000 1527.477905,213.562592 1567.122803,212.766937 
	C1587.491333,212.358154 1605.856323,205.263428 1617.880615,187.434479 
	C1625.322388,176.400345 1627.171387,163.998566 1625.186035,150.660812 
	C1623.557983,139.723770 1619.354858,130.393463 1611.382812,123.030556 
	C1601.636841,114.028976 1589.727417,109.000313 1576.701660,107.120979 
	C1569.717285,106.113304 1562.556396,106.059265 1555.474121,106.044846 
	C1511.647583,105.955643 1467.820801,106.000000 1423.994019,106.000000 
	C1422.184937,106.000000 1420.375977,106.000000 1418.166138,106.000000 
	C1418.166138,217.970947 1418.166138,329.695709 1418.166138,441.709961 
	C1386.698853,441.709961 1355.632568,441.709961 1324.000000,441.709961 
	C1324.000000,333.332977 1324.000000,224.916489 1324.000000,116.000000 
z"/>
<path fill="#f2ede6" opacity="1.000000" stroke="none" 
	d="
M2412.722168,228.700607 
	C2421.254639,210.758575 2429.588135,193.142288 2437.842285,175.488968 
	C2450.320557,148.800064 2462.718506,122.073433 2475.199707,95.386009 
	C2482.363525,80.068542 2489.632324,64.800331 2496.838623,49.502678 
	C2499.169922,44.553951 2501.300293,39.501793 2503.859375,34.675587 
	C2504.516846,33.435333 2506.451416,32.115459 2507.803711,32.110603 
	C2545.965576,31.973413 2584.127686,31.972931 2622.289551,32.114159 
	C2623.625732,32.119099 2625.598877,33.496792 2626.191895,34.748062 
	C2635.290039,53.946991 2644.155273,73.256058 2653.185303,92.487640 
	C2659.827637,106.634758 2666.688965,120.679008 2673.349365,134.817764 
	C2685.768799,161.181046 2698.132812,187.570374 2710.479980,213.967545 
	C2717.369873,228.697372 2724.144531,243.481125 2731.031006,258.212585 
	C2743.714355,285.343872 2756.430420,312.459717 2769.154541,339.571808 
	C2778.663818,359.833099 2788.240723,380.062714 2797.722656,400.336639 
	C2803.788330,413.306152 2809.742920,426.327789 2815.717041,439.339935 
	C2815.977051,439.905975 2815.934570,440.610779 2816.098877,441.676483 
	C2814.695557,441.794373 2813.471924,441.986298 2812.248291,441.986969 
	C2781.585205,442.003571 2750.921875,441.966888 2720.259033,442.061340 
	C2717.739746,442.069092 2716.288818,441.345398 2714.714600,439.314819 
	C2701.357910,422.086792 2687.862549,404.965790 2674.344238,387.863892 
	C2663.942383,374.704590 2653.410400,361.648010 2643.001221,348.494507 
	C2628.054688,329.607452 2613.179688,310.663940 2598.242188,291.769745 
	C2595.853760,288.748718 2593.299316,285.858917 2590.172119,282.135010 
	C2608.714355,282.135010 2626.250488,282.135010 2644.707520,282.135010 
	C2618.035156,222.950302 2591.700684,164.515350 2564.881592,105.005363 
	C2563.965332,107.404999 2563.420654,109.099533 2562.688232,110.708603 
	C2555.690430,126.083572 2548.584717,141.409882 2541.657959,156.816711 
	C2531.966064,178.374329 2522.442383,200.007401 2512.766357,221.572098 
	C2507.232666,233.904312 2501.478271,246.137192 2495.930176,258.462921 
	C2486.162109,280.163940 2476.528564,301.925415 2466.737793,323.616058 
	C2459.919189,338.722504 2452.863281,353.721680 2446.036621,368.824615 
	C2435.636719,391.833313 2425.392822,414.912750 2414.905518,437.881378 
	C2414.127197,439.585449 2411.939453,441.815613 2410.392822,441.826599 
	C2378.098877,442.055756 2345.802734,441.999542 2312.942383,441.999542 
	C2317.523926,432.156860 2321.906738,422.673309 2326.346436,413.216583 
	C2339.348633,385.521790 2352.389160,357.844971 2365.383789,330.146698 
	C2372.291016,315.423920 2379.141357,300.674408 2386.005615,285.931549 
	C2394.838867,266.960388 2403.660645,247.983917 2412.722168,228.700607 
z"/>
<path fill="#f2ede6" opacity="1.000000" stroke="none" 
	d="
M3031.000000,324.000000 
	C3031.000000,363.471222 3031.000000,402.442474 3031.000000,441.706635 
	C3000.039307,441.706635 2969.306641,441.706635 2938.171875,441.706635 
	C2938.171875,332.700653 2938.171875,223.643661 2938.171875,114.176254 
	C2883.709229,114.176254 2829.645020,114.176254 2775.291016,114.176254 
	C2775.291016,86.701118 2775.291016,59.634598 2775.291016,32.283527 
	C2914.635498,32.283527 3054.021729,32.283527 3193.704102,32.283527 
	C3193.704102,59.288506 3193.704102,86.355087 3193.704102,113.833694 
	C3139.699219,113.833694 3085.635010,113.833694 3031.000000,113.833694 
	C3031.000000,183.995422 3031.000000,253.747711 3031.000000,324.000000 
z"/>


</svg>